<svg width="431" height="127" viewBox="0 0 431 127" fill="none" xmlns="http://www.w3.org/2000/svg">
<path d="M73.0312 0.895752L0.614502 73.1197L9.70825 82.1926L73.0312 19.0312L82.1249 9.96346L73.0312 0.895752Z" fill="#5D5E61"/>
<path d="M82.6459 77.2865L73.047 67.7135L53.1251 47.8438L14.198 86.6667L23.2917 95.7396L53.1251 65.9792L62.6772 75.5052L77.1095 89.901L84.5313 97.3073L73.0417 108.76L61.5574 97.3073L71.5417 87.349L62.448 78.2813L43.3751 97.3073L73.0417 126.901L102.719 97.3073L85.7188 80.3542L82.6459 77.2865Z" fill="#C3922E"/>
<path d="M92.9635 47.8438L74.552 66.2083L83.6458 75.2813L92.9635 65.9792L122.802 95.7396L131.896 86.6719L92.9635 47.8438Z" fill="#C3922E"/>
<path d="M83.823 11.6562L79.8803 15.5833L74.7292 20.724L136.385 82.1927L145.474 73.125L83.823 11.6562Z" fill="#5D5E61"/>
<path d="M154.758 61.5098V23.6348H171.092C172.935 23.6348 174.639 24.0202 176.196 24.7806C177.764 25.5462 179.102 26.5462 180.217 27.7806C181.342 29.0046 182.222 30.4056 182.862 31.9889C183.498 33.5723 183.821 35.166 183.821 36.7598C183.821 38.4264 183.514 40.0514 182.904 41.6348C182.305 43.2181 181.467 44.6296 180.383 45.8639C179.3 47.0879 177.977 48.0671 176.425 48.8014C174.883 49.5254 173.185 49.8848 171.342 49.8848H165.154V61.5098H154.758ZM165.154 40.8223H170.654C171.29 40.8223 171.883 40.5306 172.425 39.9473C172.977 39.3535 173.258 38.291 173.258 36.7598C173.258 35.2077 172.935 34.1452 172.3 33.5723C171.659 33.0046 171.019 32.7181 170.383 32.7181H165.154V40.8223Z" fill="#5D5E61"/>
<path d="M187.822 61.5098V23.6348H205.218C207.061 23.6348 208.764 24.0202 210.322 24.7806C211.889 25.5462 213.228 26.5462 214.343 27.7806C215.468 29.0046 216.348 30.4056 216.988 31.9889C217.639 33.5723 217.968 35.166 217.968 36.7598C217.968 38.9681 217.478 41.0254 216.509 42.9264C215.551 44.8327 214.218 46.3848 212.509 47.5931L221.051 61.5098H209.322L202.113 49.8848H198.218V61.5098H187.822ZM198.218 40.8223H204.78C205.416 40.8223 206.014 40.4681 206.572 39.7598C207.124 39.041 207.405 38.041 207.405 36.7598C207.405 35.4421 207.082 34.4421 206.447 33.7598C205.806 33.0671 205.16 32.7181 204.509 32.7181H198.218V40.8223Z" fill="#5D5E61"/>
<path d="M240.467 61.8223C237.759 61.8223 235.29 61.2755 233.072 60.1765C230.848 59.0828 228.947 57.6348 227.363 55.8432C225.78 54.0411 224.551 51.9838 223.676 49.6765C222.811 47.3588 222.384 44.9786 222.384 42.5307C222.384 40.0307 222.832 37.6296 223.738 35.3223C224.639 33.0203 225.91 30.9838 227.551 29.2182C229.186 27.4578 231.118 26.0515 233.342 25.0098C235.561 23.9578 238.009 23.4265 240.676 23.4265C243.384 23.4265 245.848 23.9838 248.072 25.0932C250.29 26.1921 252.186 27.6505 253.759 29.4682C255.342 31.2755 256.556 33.338 257.405 35.6557C258.264 37.963 258.697 40.3223 258.697 42.739C258.697 45.2286 258.243 47.614 257.342 49.9057C256.436 52.1973 255.181 54.2286 253.572 55.989C251.973 57.7546 250.056 59.1713 247.822 60.239C245.582 61.2963 243.134 61.8223 240.467 61.8223ZM232.947 42.6348C232.947 43.9161 233.092 45.1505 233.384 46.3432C233.686 47.5255 234.16 48.5828 234.801 49.5098C235.436 50.4421 236.238 51.1921 237.197 51.7598C238.165 52.3171 239.29 52.5932 240.572 52.5932C241.889 52.5932 243.03 52.3015 243.988 51.7182C244.947 51.1348 245.723 50.3744 246.322 49.4265C246.931 48.4838 247.384 47.4057 247.676 46.1973C247.978 44.989 248.134 43.7703 248.134 42.5307C248.134 41.239 247.973 40.0046 247.655 38.8223C247.332 37.6296 246.863 36.5828 246.238 35.6765C245.624 34.7598 244.832 34.0307 243.863 33.489C242.905 32.9369 241.785 32.6557 240.509 32.6557C239.202 32.6557 238.077 32.9421 237.134 33.5098C236.186 34.0828 235.405 34.838 234.78 35.7807C234.155 36.7286 233.686 37.7963 233.384 38.989C233.092 40.1713 232.947 41.3848 232.947 42.6348Z" fill="#5D5E61"/>
<path d="M263.174 61.5098V23.6348H279.508C281.351 23.6348 283.055 24.0202 284.612 24.7806C286.18 25.5462 287.518 26.5462 288.633 27.7806C289.758 29.0046 290.638 30.4056 291.278 31.9889C291.914 33.5723 292.237 35.166 292.237 36.7598C292.237 38.4264 291.93 40.0514 291.32 41.6348C290.721 43.2181 289.883 44.6296 288.799 45.8639C287.716 47.0879 286.393 48.0671 284.841 48.8014C283.299 49.5254 281.601 49.8848 279.758 49.8848H273.57V61.5098H263.174ZM273.57 40.8223H279.07C279.706 40.8223 280.299 40.5306 280.841 39.9473C281.393 39.3535 281.674 38.291 281.674 36.7598C281.674 35.2077 281.351 34.1452 280.716 33.5723C280.075 33.0046 279.435 32.7181 278.799 32.7181H273.57V40.8223Z" fill="#5D5E61"/>
<path d="M323.238 52.4473V61.5098H296.238V23.6348H322.738V32.7181H306.634V38.0514H320.404V46.4681H306.634V52.4473H323.238Z" fill="#5D5E61"/>
<path d="M328.074 61.5098V23.6348H345.47C347.314 23.6348 349.017 24.0202 350.574 24.7806C352.142 25.5462 353.481 26.5462 354.595 27.7806C355.72 29.0046 356.601 30.4056 357.241 31.9889C357.892 33.5723 358.22 35.166 358.22 36.7598C358.22 38.9681 357.731 41.0254 356.762 42.9264C355.804 44.8327 354.47 46.3848 352.762 47.5931L361.304 61.5098H349.574L342.366 49.8848H338.47V61.5098H328.074ZM338.47 40.8223H345.033C345.668 40.8223 346.267 40.4681 346.824 39.7598C347.377 39.041 347.658 38.041 347.658 36.7598C347.658 35.4421 347.335 34.4421 346.699 33.7598C346.059 33.0671 345.413 32.7181 344.762 32.7181H338.47V40.8223Z" fill="#5D5E61"/>
<path d="M394.158 32.7181H383.283V61.5098H372.866V32.7181H361.949V23.6348H394.158V32.7181Z" fill="#5D5E61"/>
<path d="M405.247 23.6348L412.018 40.0098L418.955 23.6348H430.268L417.184 48.9681V61.5098H406.851V48.8639L393.997 23.6348H405.247Z" fill="#5D5E61"/>
<path d="M178.973 79.4607C177.9 78.8253 176.796 78.2524 175.66 77.7524C174.702 77.3357 173.624 76.9399 172.431 76.5649C171.249 76.1899 170.087 76.0024 168.952 76.0024C168.02 76.0024 167.275 76.1482 166.723 76.4399C166.181 76.7211 165.91 77.2003 165.91 77.8774C165.91 78.3669 166.066 78.768 166.389 79.0857C166.707 79.4086 167.165 79.7055 167.764 79.9815C168.374 80.2472 169.108 80.5024 169.973 80.7524C170.848 81.0024 171.837 81.3044 172.952 81.6482C174.686 82.1899 176.254 82.7836 177.66 83.419C179.061 84.0597 180.264 84.8149 181.264 85.6899C182.264 86.5544 183.025 87.6065 183.556 88.8565C184.098 90.0961 184.368 91.6013 184.368 93.3774C184.368 95.6586 183.941 97.5753 183.098 99.1274C182.264 100.669 181.16 101.909 179.785 102.836C178.421 103.752 176.879 104.419 175.16 104.836C173.436 105.237 171.702 105.44 169.952 105.44C168.561 105.44 167.139 105.325 165.681 105.107C164.233 104.898 162.79 104.601 161.348 104.211C159.9 103.825 158.514 103.367 157.181 102.836C155.848 102.294 154.608 101.69 153.473 101.023L157.952 91.8982C159.202 92.6794 160.499 93.3722 161.848 93.9815C162.983 94.5128 164.27 94.9919 165.702 95.419C167.145 95.8357 168.618 96.044 170.118 96.044C171.254 96.044 172.046 95.8982 172.493 95.6065C172.936 95.3044 173.16 94.8982 173.16 94.3982C173.16 93.8722 172.936 93.419 172.493 93.044C172.046 92.669 171.431 92.3461 170.639 92.0649C169.858 91.7732 168.962 91.4919 167.952 91.2107C166.936 90.919 165.858 90.5805 164.723 90.1899C163.056 89.6222 161.618 89.0128 160.41 88.3565C159.202 87.6899 158.202 86.9399 157.41 86.1065C156.629 85.2732 156.056 84.3253 155.681 83.2524C155.316 82.1847 155.139 80.9555 155.139 79.5649C155.139 77.4711 155.52 75.6222 156.285 74.0232C157.046 72.4294 158.082 71.0961 159.389 70.0232C160.707 68.9555 162.207 68.1482 163.889 67.6065C165.582 67.0544 167.374 66.7732 169.264 66.7732C170.65 66.7732 171.999 66.9086 173.306 67.169C174.624 67.4347 175.895 67.7732 177.118 68.1899C178.353 68.5961 179.504 69.0388 180.577 69.5232C181.645 69.9972 182.603 70.4503 183.452 70.8774L178.973 79.4607Z" fill="#B4821C"/>
<path d="M215.939 95.8982V104.961H188.939V67.0857H215.439V76.169H199.335V81.5024H213.105V89.919H199.335V95.8982H215.939Z" fill="#B4821C"/>
<path d="M217.109 104.961L231.234 67.0857H239.651L253.734 104.961H242.755L240.463 97.544H230.38L228.13 104.961H217.109ZM235.442 77.919L231.921 90.6065H238.796L235.442 77.919Z" fill="#B4821C"/>
<path d="M256.559 104.961V67.0857H273.954C275.798 67.0857 277.501 67.4711 279.059 68.2315C280.626 68.9972 281.965 69.9972 283.079 71.2315C284.204 72.4555 285.085 73.8565 285.725 75.4399C286.376 77.0232 286.704 78.6169 286.704 80.2107C286.704 82.419 286.215 84.4763 285.246 86.3774C284.288 88.2836 282.954 89.8357 281.246 91.044L289.788 104.961H278.059L270.85 93.3357H266.954V104.961H256.559ZM266.954 84.2732H273.517C274.152 84.2732 274.751 83.919 275.309 83.2107C275.861 82.4919 276.142 81.4919 276.142 80.2107C276.142 78.893 275.819 77.893 275.184 77.2107C274.543 76.518 273.897 76.169 273.246 76.169H266.954V84.2732Z" fill="#B4821C"/>
<path d="M291.058 85.7108C291.058 83.3931 291.465 81.117 292.288 78.8774C293.105 76.6431 294.308 74.6379 295.892 72.8566C297.475 71.0806 299.392 69.6431 301.642 68.5441C303.902 67.4347 306.475 66.8774 309.35 66.8774C312.735 66.8774 315.689 67.6379 318.204 69.1483C320.73 70.6639 322.6 72.6639 323.808 75.1483L315.871 80.7941C315.548 79.8774 315.126 79.1222 314.6 78.5233C314.084 77.9139 313.522 77.4347 312.913 77.0858C312.314 76.7264 311.673 76.4764 310.996 76.3358C310.329 76.1847 309.709 76.1066 309.142 76.1066C307.819 76.1066 306.689 76.4087 305.746 77.0024C304.814 77.5858 304.038 78.3514 303.413 79.2941C302.788 80.2264 302.329 81.2889 302.038 82.4816C301.756 83.6795 301.621 84.8566 301.621 86.0233C301.621 87.3462 301.788 88.6066 302.121 89.8149C302.465 91.0233 302.965 92.0962 303.621 93.0233C304.288 93.9399 305.084 94.6795 306.017 95.2316C306.959 95.7733 308.038 96.0441 309.246 96.0441C309.855 96.0441 310.48 95.9712 311.121 95.8149C311.756 95.6483 312.371 95.3879 312.954 95.0233C313.538 94.6483 314.069 94.1691 314.558 93.5858C315.043 92.992 315.423 92.2681 315.704 91.4191L324.183 96.4816C323.652 97.8722 322.85 99.1222 321.767 100.232C320.683 101.331 319.444 102.252 318.058 103.002C316.668 103.742 315.189 104.305 313.621 104.69C312.064 105.075 310.538 105.273 309.038 105.273C306.413 105.273 303.996 104.721 301.788 103.607C299.579 102.482 297.683 100.997 296.1 99.1483C294.517 97.3045 293.277 95.2056 292.392 92.8566C291.501 90.5129 291.058 88.1274 291.058 85.7108Z" fill="#B4821C"/>
<path d="M361.572 67.0857V104.961H351.176V90.1274H338.467V104.961H328.072V67.0857H338.467V81.0649H351.176V67.0857H361.572Z" fill="#B4821C"/>
</svg>
