<svg xmlns="http://www.w3.org/2000/svg" xmlns:xlink="http://www.w3.org/1999/xlink" version="1.1" width="256" height="256" viewBox="0 0 256 256" xml:space="preserve">
<desc>Created with Fabric.js 1.7.22</desc>
<defs>
</defs>
<g transform="translate(128 128) scale(0.72 0.72)" style="">
	<g style="stroke: none; stroke-width: 0; stroke-dasharray: none; stroke-linecap: butt; stroke-linejoin: miter; stroke-miterlimit: 10; fill: none; fill-rule: nonzero; opacity: 1;" transform="translate(-175.05 -175.05000000000004) scale(3.89 3.89)" >
	<path d="M 80.077 0 H 9.923 C 4.451 0 0 4.451 0 9.923 v 70.154 C 0 85.549 4.451 90 9.923 90 h 70.154 C 85.549 90 90 85.549 90 80.077 V 9.923 C 90 4.451 85.549 0 80.077 0 z M 45.271 68.771 c -12.958 0 -23.5 -10.542 -23.5 -23.5 s 10.542 -23.5 23.5 -23.5 s 23.5 10.542 23.5 23.5 S 58.229 68.771 45.271 68.771 z M 72.902 23.139 c -3.032 0 -5.5 -2.467 -5.5 -5.5 s 2.468 -5.5 5.5 -5.5 s 5.5 2.467 5.5 5.5 S 75.935 23.139 72.902 23.139 z" style="stroke: none; stroke-width: 1; stroke-dasharray: none; stroke-linecap: butt; stroke-linejoin: miter; stroke-miterlimit: 10; fill: #C3922E; fill-rule: nonzero; opacity: 1;" transform=" matrix(1 0 0 1 0 0) " stroke-linecap="round" />
</g>
</g>
</svg>